<svg xmlns="http://www.w3.org/2000/svg" xmlns:xlink="http://www.w3.org/1999/xlink" width="63" zoomAndPan="magnify" viewBox="0 0 47.25 52.499999" height="70" preserveAspectRatio="xMidYMid meet" version="1.0"><defs><clipPath id="3f424af5a8"><path d="M 0 0.164062 L 46.511719 0.164062 L 46.511719 51.84375 L 0 51.84375 Z M 0 0.164062 " clip-rule="nonzero"/></clipPath><clipPath id="c675be23ec"><path d="M 4.601562 3.660156 L 40 3.660156 L 40 46 L 4.601562 46 Z M 4.601562 3.660156 " clip-rule="nonzero"/></clipPath><clipPath id="31f4999ed6"><path d="M 24 41 L 41.515625 41 L 41.515625 51 L 24 51 Z M 24 41 " clip-rule="nonzero"/></clipPath></defs><g clip-path="url(#3f424af5a8)"><path fill="#ffffff" d="M 0 0.164062 L 46.511719 0.164062 L 46.511719 51.84375 L 0 51.84375 Z M 0 0.164062 " fill-opacity="1" fill-rule="nonzero"/></g><path fill="#fd221d" d="M 15.234375 16.253906 L 17.789062 16.253906 C 17.941406 16.253906 18.046875 16.351562 18.046875 16.507812 L 18.046875 19.0625 C 18.046875 19.21875 17.941406 19.324219 17.789062 19.324219 L 15.234375 19.324219 C 15.078125 19.324219 14.976562 19.21875 14.976562 19.0625 L 14.976562 16.507812 C 14.976562 16.351562 15.078125 16.253906 15.234375 16.253906 Z M 14.628906 14.746094 C 13.988281 14.746094 13.46875 15.265625 13.46875 15.90625 L 13.46875 19.671875 C 13.46875 20.3125 13.988281 20.828125 14.628906 20.828125 L 18.394531 20.828125 C 19.039062 20.828125 19.550781 20.308594 19.550781 19.671875 L 19.550781 15.90625 C 19.550781 15.265625 19.039062 14.746094 18.394531 14.746094 Z M 14.628906 14.746094 " fill-opacity="1" fill-rule="evenodd"/><path fill="#fd221d" d="M 24.632812 16.253906 L 27.183594 16.253906 C 27.339844 16.253906 27.445312 16.351562 27.445312 16.507812 L 27.445312 18.632812 C 27.445312 18.789062 27.339844 18.890625 27.183594 18.890625 L 24.632812 18.890625 C 24.476562 18.890625 24.375 18.789062 24.375 18.632812 L 24.375 16.507812 C 24.375 16.351562 24.472656 16.253906 24.632812 16.253906 Z M 24.027344 14.746094 C 23.386719 14.746094 22.867188 15.265625 22.867188 15.90625 L 22.867188 19.671875 C 22.867188 20.683594 23.699219 20.738281 24.339844 20.441406 C 25.3125 19.984375 26.609375 19.984375 27.417969 20.308594 C 28.484375 20.734375 28.949219 20.742188 28.949219 19.894531 L 28.949219 15.90625 C 28.949219 15.261719 28.433594 14.746094 27.789062 14.746094 Z M 24.027344 14.746094 " fill-opacity="1" fill-rule="evenodd"/><path fill="#fd221d" d="M 15.238281 25.648438 L 17.789062 25.648438 C 17.945312 25.648438 18.046875 25.75 18.046875 25.910156 L 18.046875 28.460938 C 18.046875 28.617188 17.945312 28.722656 17.789062 28.722656 L 15.238281 28.722656 C 15.082031 28.722656 14.976562 28.617188 14.976562 28.460938 L 14.976562 25.910156 C 14.976562 25.75 15.082031 25.648438 15.238281 25.648438 Z M 14.628906 24.140625 C 13.988281 24.140625 13.46875 24.660156 13.46875 25.300781 L 13.46875 29.0625 C 13.46875 29.707031 13.988281 30.226562 14.628906 30.226562 L 18.394531 30.226562 C 19.039062 30.226562 19.550781 29.707031 19.550781 29.0625 L 19.550781 25.300781 C 19.550781 24.660156 19.039062 24.140625 18.394531 24.140625 Z M 14.628906 24.140625 " fill-opacity="1" fill-rule="evenodd"/><path fill="#fd221d" d="M 22.867188 28.023438 L 22.867188 29.296875 C 22.867188 29.8125 23.277344 30.226562 23.792969 30.226562 L 24.96875 30.226562 C 25.367188 30.226562 25.574219 29.996094 25.226562 29.585938 L 23.53125 27.585938 C 22.828125 26.761719 22.867188 27.632812 22.867188 28.023438 Z M 22.867188 28.023438 " fill-opacity="1" fill-rule="evenodd"/><path fill="#fd221d" d="M 20.363281 29.878906 L 20.363281 28.773438 C 20.363281 28.578125 20.515625 28.421875 20.710938 28.421875 L 21.710938 28.421875 C 21.902344 28.421875 22.054688 28.578125 22.054688 28.773438 L 22.054688 29.878906 C 22.054688 30.070312 21.902344 30.222656 21.710938 30.222656 L 20.710938 30.222656 C 20.515625 30.222656 20.363281 30.070312 20.363281 29.878906 Z M 20.363281 29.878906 " fill-opacity="1" fill-rule="evenodd"/><path fill="#fd221d" d="M 16.378906 21.636719 C 16.1875 21.636719 16.03125 21.792969 16.03125 21.984375 L 16.03125 22.984375 C 16.03125 23.175781 16.1875 23.332031 16.378906 23.332031 L 20.363281 23.332031 L 20.363281 27.054688 C 20.363281 27.25 20.515625 27.402344 20.710938 27.402344 L 21.710938 27.402344 C 21.902344 27.402344 22.054688 27.25 22.054688 27.054688 L 22.054688 21.984375 C 22.054688 21.628906 21.769531 21.636719 21.605469 21.636719 Z M 16.378906 21.636719 " fill-opacity="1" fill-rule="evenodd"/><g clip-path="url(#c675be23ec)"><path fill="#fd221d" d="M 12.304688 7.433594 L 30.152344 7.453125 C 30.863281 7.453125 31.40625 8 31.40625 8.71875 C 31.398438 14.589844 31.382812 17.34375 31.382812 22.257812 C 31.339844 22.898438 31.796875 23.367188 32.1875 23.769531 L 35.558594 27.246094 C 36.003906 27.816406 35.144531 28.484375 34.703125 27.914062 C 32.070312 25.277344 31.355469 24.707031 28.910156 22.8125 C 26.464844 20.910156 24.839844 21.238281 23.949219 22.210938 C 23.054688 23.179688 22.855469 24.914062 24.277344 26.5625 L 27.378906 30.214844 C 28.277344 31.261719 28.996094 32.257812 29.054688 33.207031 C 29.113281 34.160156 28.851562 35.03125 28.578125 35.894531 C 28.023438 37.617188 27.015625 39.332031 27.726562 41.992188 C 28.042969 42.707031 27.128906 43.101562 26.9375 42.347656 C 26.769531 41.859375 26.664062 41.40625 26.585938 40.964844 C 26.410156 39.941406 26.429688 38.964844 26.703125 38.207031 C 26.960938 37.5 26.53125 36.957031 25.6875 36.957031 L 12.269531 36.941406 C 11.367188 36.941406 11.023438 36.421875 11.023438 35.449219 L 11.046875 8.691406 C 11.046875 7.972656 11.597656 7.433594 12.304688 7.433594 Z M 12.304688 3.835938 C 10.429688 3.835938 8.890625 5.382812 8.890625 7.261719 L 8.882812 12.09375 C 8.585938 12.148438 8.289062 12.269531 8 12.453125 C 7.25 12.941406 6.742188 13.816406 6.699219 14.710938 C 6.652344 15.609375 7.046875 16.371094 7.707031 16.75 L 8.878906 17.433594 L 8.878906 18.117188 L 8.210938 17.730469 C 7.40625 17.265625 6.632812 17.484375 5.941406 17.867188 C 5.15625 18.300781 4.683594 19.238281 4.636719 20.132812 C 4.589844 21.03125 4.984375 21.789062 5.648438 22.171875 L 8.871094 24.039062 L 8.871094 24.695312 C 8.644531 24.753906 8.417969 24.832031 8.199219 24.980469 C 7.550781 25.40625 7.105469 26.179688 7.058594 26.953125 C 7.007812 27.734375 7.335938 28.371094 7.882812 28.6875 L 8.867188 29.257812 L 8.855469 39.019531 C 8.851562 40.894531 10.390625 42.445312 12.269531 42.449219 L 21.769531 42.464844 L 23.347656 44.902344 C 23.742188 45.511719 24.414062 45.984375 25.429688 45.605469 L 37.699219 40.992188 C 39.496094 40.316406 39.007812 38.878906 39.042969 37.625 L 39.363281 27.675781 C 39.40625 26.277344 39.03125 25.125 38.28125 24.015625 L 33.546875 17.226562 L 33.5625 7.285156 C 33.5625 5.410156 32.027344 3.863281 30.152344 3.863281 Z M 12.304688 3.835938 " fill-opacity="1" fill-rule="nonzero"/></g><g clip-path="url(#31f4999ed6)"><path fill="#fd221d" d="M 40.695312 42.132812 C 41.347656 43.882812 41.300781 44.886719 40.796875 45.660156 C 40.289062 46.425781 39.183594 47.054688 37.5 47.6875 L 30.894531 50.175781 C 29.210938 50.808594 27.964844 51.066406 27.082031 50.820312 C 26.191406 50.570312 25.511719 49.835938 24.832031 48.09375 C 24.648438 47.625 24.480469 47.117188 25.4375 46.761719 L 39.160156 41.605469 C 40.296875 41.175781 40.53125 41.695312 40.695312 42.132812 Z M 40.695312 42.132812 " fill-opacity="1" fill-rule="nonzero"/></g><path fill="#fd221d" d="M 20.363281 16.199219 L 20.363281 15.09375 C 20.363281 14.902344 20.515625 14.746094 20.710938 14.746094 L 21.710938 14.746094 C 21.902344 14.746094 22.054688 14.902344 22.054688 15.09375 L 22.054688 16.199219 C 22.054688 16.390625 21.902344 16.546875 21.710938 16.546875 L 20.710938 16.546875 C 20.515625 16.546875 20.363281 16.390625 20.363281 16.199219 Z M 20.363281 16.199219 " fill-opacity="1" fill-rule="evenodd"/><path fill="#fd221d" d="M 20.363281 19.644531 L 20.363281 18.539062 C 20.363281 18.347656 20.515625 18.195312 20.710938 18.195312 L 21.710938 18.195312 C 21.902344 18.195312 22.054688 18.347656 22.054688 18.539062 L 22.054688 19.644531 C 22.054688 19.835938 21.902344 19.992188 21.710938 19.992188 L 20.710938 19.992188 C 20.515625 19.992188 20.363281 19.835938 20.363281 19.644531 Z M 20.363281 19.644531 " fill-opacity="1" fill-rule="evenodd"/><path fill="#fd221d" d="M 13.46875 23.039062 L 13.46875 21.929688 C 13.46875 21.742188 13.628906 21.585938 13.816406 21.585938 L 14.820312 21.585938 C 15.007812 21.585938 15.164062 21.742188 15.164062 21.929688 L 15.164062 23.039062 C 15.164062 23.230469 15.007812 23.382812 14.820312 23.382812 L 13.816406 23.382812 C 13.628906 23.382812 13.46875 23.230469 13.46875 23.039062 Z M 13.46875 23.039062 " fill-opacity="1" fill-rule="evenodd"/></svg>